<svg xmlns="http://www.w3.org/2000/svg" viewBox="0 0 520 300" width="520" height="300">
  <!-- Grade semanal de aulas (desenho próprio do Painel de estudos) -->
  <g fill="none" stroke="#c9ccd2" stroke-width="1.5" stroke-linecap="round" stroke-linejoin="round">
<rect x="20" y="20" width="480" height="260" rx="10"/>
    <path d="M20 52H500M70 52V280"/>
    <text x="113" y="41" fill="#c9ccd2" stroke="none" font-size="11" font-family="ui-monospace, 'Fira Code', monospace" text-anchor="middle" letter-spacing="1">SEG</text>
    <path d="M156 20V280"/>
    <text x="199" y="41" fill="#c9ccd2" stroke="none" font-size="11" font-family="ui-monospace, 'Fira Code', monospace" text-anchor="middle" letter-spacing="1">TER</text>
    <path d="M242 20V280"/>
    <text x="285" y="41" fill="#c9ccd2" stroke="none" font-size="11" font-family="ui-monospace, 'Fira Code', monospace" text-anchor="middle" letter-spacing="1">QUA</text>
    <path d="M328 20V280"/>
    <text x="371" y="41" fill="#c9ccd2" stroke="none" font-size="11" font-family="ui-monospace, 'Fira Code', monospace" text-anchor="middle" letter-spacing="1">QUI</text>
    <path d="M414 20V280"/>
    <text x="457" y="41" fill="#c9ccd2" stroke="none" font-size="11" font-family="ui-monospace, 'Fira Code', monospace" text-anchor="middle" letter-spacing="1">SEX</text>
    <text x="45" y="70" fill="#c9ccd2" stroke="none" font-size="9.5" font-family="ui-monospace, 'Fira Code', monospace" text-anchor="middle" letter-spacing="0">07:05</text>
    <path d="M70 109H500" stroke-dasharray="3 5" stroke-width="1"/>
    <text x="45" y="127" fill="#c9ccd2" stroke="none" font-size="9.5" font-family="ui-monospace, 'Fira Code', monospace" text-anchor="middle" letter-spacing="0">08:45</text>
    <path d="M70 166H500" stroke-dasharray="3 5" stroke-width="1"/>
    <text x="45" y="184" fill="#c9ccd2" stroke="none" font-size="9.5" font-family="ui-monospace, 'Fira Code', monospace" text-anchor="middle" letter-spacing="0">10:25</text>
    <path d="M70 223H500" stroke-dasharray="3 5" stroke-width="1"/>
    <text x="45" y="241" fill="#c9ccd2" stroke="none" font-size="9.5" font-family="ui-monospace, 'Fira Code', monospace" text-anchor="middle" letter-spacing="0">19:00</text>
    <rect x="76" y="58" width="74" height="45" rx="6"/>
    <path d="M84 72H126M84 82H110" stroke-width="1.2"/>
    <rect x="162" y="172" width="74" height="45" rx="6"/>
    <path d="M170 186H212M170 196H196" stroke-width="1.2"/>
    <rect x="248" y="58" width="74" height="102" rx="6" stroke="#e07a8c"/>
    <path d="M256 72H298M256 82H282" stroke="#e07a8c" stroke-width="1.2"/>
    <circle cx="312" cy="72" r="3" stroke="#e07a8c"/>
    <rect x="334" y="115" width="74" height="45" rx="6"/>
    <path d="M342 129H384M342 139H368" stroke-width="1.2"/>
    <rect x="420" y="58" width="74" height="45" rx="6"/>
    <path d="M428 72H470M428 82H454" stroke-width="1.2"/>
    <rect x="76" y="229" width="74" height="45" rx="6"/>
    <path d="M84 243H126M84 253H110" stroke-width="1.2"/>
    <rect x="334" y="229" width="74" height="45" rx="6"/>
    <path d="M342 243H384M342 253H368" stroke-width="1.2"/>
    <rect x="162" y="115" width="74" height="45" rx="6"/>
    <path d="M170 129H212M170 139H196" stroke-width="1.2"/>
  </g>
</svg>
