<svg xmlns="http://www.w3.org/2000/svg" viewBox="0 0 520 300" width="520" height="300">
  <!-- Livros empilhados (desenho próprio do Painel de estudos) -->
  <g fill="none" stroke="#c9ccd2" stroke-width="1.5" stroke-linecap="round" stroke-linejoin="round">
<path d="M40 262H480"/>
    <rect x="92" y="222" width="236" height="40" rx="4"/>
    <path d="M108 222V262M312 222V262" stroke-width="1"/>
    <path d="M132 242H214.6" stroke-width="1"/>
    <rect x="104" y="184" width="206" height="38" rx="4" stroke="#e07a8c"/>
    <path d="M120 184V222M294 184V222" stroke="#e07a8c" stroke-width="1"/>
    <path d="M144 203H216.1" stroke-width="1"/>
    <rect x="84" y="150" width="228" height="34" rx="4"/>
    <path d="M100 150V184M296 150V184" stroke-width="1"/>
    <path d="M124 167H203.8" stroke-width="1"/>
    <rect x="116" y="120" width="176" height="30" rx="4"/>
    <path d="M132 120V150M276 120V150" stroke-width="1"/>
    <path d="M156 135H217.6" stroke-width="1"/>
    <path d="M132 108L292 88 296 96 136 116Z"/>
    <path d="M292 88L312 90 296 96" stroke="#e07a8c"/>
    <path d="M150 106L152 114" stroke-width="1"/>
    <rect x="356" y="104" width="30" height="158" rx="3"/>
    <path d="M356 124H386M356 242H386" stroke-width="1"/>
    <rect x="388" y="122" width="26" height="140" rx="3"/>
    <path d="M396 150V200" stroke="#e07a8c" stroke-width="1"/>
    <path d="M418 262L452 128 476 134 444 262"/>
    <path d="M440 156L462 162M430 236L452 241" stroke-width="1"/>
  </g>
</svg>
